<?xml version="1.0" standalone="no"?>
<!DOCTYPE svg PUBLIC "-//W3C//DTD SVG 20010904//EN"
 "http://www.w3.org/TR/2001/REC-SVG-20010904/DTD/svg10.dtd">
<svg version="1.0" xmlns="http://www.w3.org/2000/svg"
 width="500.000000pt" height="500.000000pt" viewBox="0 0 500.000000 500.000000"
 preserveAspectRatio="xMidYMid meet">

<g transform="translate(0.000000,500.000000) scale(0.100000,-0.100000)"
fill="#000000" stroke="none">
<path d="M476 4004 c-14 -14 -16 -150 -16 -1352 0 -744 4 -1343 9 -1351 5 -8
255 -80 582 -168 461 -123 578 -152 597 -144 21 10 22 15 22 151 l0 140 348 0
c257 0 351 3 360 12 8 8 12 49 12 120 l0 108 1048 0 c824 0 1052 3 1072 13
l25 13 3 1019 2 1020 -21 18 c-20 16 -86 17 -1075 17 l-1054 0 0 190 c0 177
-1 190 -19 200 -13 7 -328 10 -950 10 -832 0 -931 -2 -945 -16z m1824 -234 l0
-150 -248 0 c-208 0 -251 -2 -270 -16 l-22 -15 0 -1013 c0 -858 2 -1015 14
-1032 13 -18 30 -19 270 -22 l256 -3 0 -69 0 -70 -315 0 -315 0 0 1160 c0
1102 -1 1160 -18 1169 -10 5 -179 53 -377 106 -198 53 -364 98 -370 100 -5 2
306 4 693 4 l702 1 0 -150z m-1215 -3 l490 -132 3 -1268 c2 -1202 1 -1267 -15
-1267 -10 0 -240 60 -511 133 l-493 132 -2 1267 c-2 1262 -2 1268 18 1267 11
0 241 -60 510 -132z m3365 -412 l0 -165 -1295 0 -1295 0 0 165 0 165 1295 0
1295 0 0 -165z m-2 -997 l-3 -733 -1292 -3 -1293 -2 0 735 0 735 1295 0 1295
0 -2 -732z"/>
<path d="M720 3661 c-6 -13 -10 -177 -10 -463 0 -385 2 -446 16 -466 18 -26
46 -28 68 -6 14 14 16 70 16 473 0 342 -3 460 -12 469 -19 19 -66 15 -78 -7z"/>
<path d="M1336 2584 c-14 -13 -16 -49 -16 -238 0 -234 2 -246 46 -246 48 0 54
28 54 250 0 170 -3 209 -16 228 -18 26 -46 28 -68 6z"/>
<path d="M750 2553 c-32 -11 -40 -37 -40 -126 0 -103 9 -127 49 -127 46 0 52
17 49 130 -3 90 -5 104 -23 115 -11 7 -27 10 -35 8z"/>
<path d="M2010 3451 c-5 -11 -10 -54 -10 -96 0 -128 -77 -115 660 -115 567 0
640 2 654 16 12 11 16 36 16 95 0 133 79 119 -665 119 -627 0 -645 -1 -655
-19z m1220 -96 l0 -25 -565 0 -565 0 0 25 0 25 565 0 565 0 0 -25z"/>
<path d="M3474 3436 c-29 -29 -34 -41 -34 -81 0 -40 5 -52 34 -81 29 -29 41
-34 80 -34 67 0 107 38 114 108 4 49 2 54 -31 87 -30 30 -42 35 -82 35 -40 0
-52 -5 -81 -34z m95 -92 c-9 -11 -15 -12 -25 -3 -11 9 -12 15 -3 25 9 11 15
12 25 3 11 -9 12 -15 3 -25z"/>
<path d="M3808 3454 c-76 -41 -74 -159 2 -199 49 -25 95 -19 136 18 30 27 37
41 38 74 0 22 -5 52 -12 65 -29 53 -107 73 -164 42z m79 -90 c8 -21 -13 -42
-28 -27 -13 13 -5 43 11 43 6 0 13 -7 17 -16z"/>
<path d="M4110 3443 c-101 -92 -5 -242 124 -193 32 12 66 65 66 103 0 36 -23
81 -52 101 -37 26 -103 21 -138 -11z m87 -79 c8 -21 -13 -42 -28 -27 -13 13
-5 43 11 43 6 0 13 -7 17 -16z"/>
<path d="M2082 2918 c-16 -16 -15 -53 2 -67 9 -8 60 -11 156 -9 121 3 144 6
153 20 8 12 8 24 -1 42 l-12 26 -143 0 c-98 0 -147 -4 -155 -12z"/>
<path d="M2516 2914 c-19 -18 -20 -28 -6 -55 10 -18 27 -19 533 -19 551 0 547
0 547 45 0 45 3 45 -541 45 -457 0 -519 -2 -533 -16z"/>
<path d="M3756 2914 c-19 -18 -20 -28 -6 -55 10 -17 23 -19 153 -19 150 0 167
5 167 45 0 40 -17 45 -161 45 -112 0 -141 -3 -153 -16z"/>
<path d="M2078 2664 c-9 -18 -9 -30 -1 -42 9 -15 52 -17 459 -20 247 -1 459 0
470 3 28 6 36 38 17 64 -14 21 -21 21 -474 21 l-459 0 -12 -26z"/>
<path d="M3192 2678 c-7 -7 -12 -21 -12 -33 0 -45 2 -45 445 -45 443 0 445 0
445 45 0 12 -5 26 -12 33 -17 17 -849 17 -866 0z"/>
<path d="M2079 2429 c-8 -16 -8 -28 0 -45 l11 -24 639 0 c568 0 641 2 655 16
19 18 20 28 6 55 -10 18 -28 19 -655 19 l-644 0 -12 -21z"/>
<path d="M3773 2381 c-30 -14 -39 -48 -17 -72 16 -18 32 -19 220 -19 171 0
205 2 218 16 19 19 21 48 4 62 -17 14 -396 25 -425 13z"/>
<path d="M2664 2222 c-19 -12 -244 -407 -244 -429 0 -42 54 -59 82 -25 22 26
238 406 238 419 0 30 -49 53 -76 35z"/>
<path d="M2170 2112 c-60 -59 -100 -106 -100 -118 0 -21 198 -224 219 -224 14
0 51 37 51 51 0 6 -35 47 -77 90 l-76 79 76 79 c42 43 77 83 77 88 0 19 -32
53 -51 53 -11 0 -61 -41 -119 -98z"/>
<path d="M2836 2194 c-29 -28 -18 -54 56 -130 l71 -74 -71 -74 c-42 -42 -72
-83 -72 -94 0 -25 25 -52 48 -52 19 0 222 200 222 219 0 21 -201 221 -221 221
-10 0 -25 -7 -33 -16z"/>
<path d="M3564 2110 c-30 -12 -37 -39 -19 -66 l15 -24 310 0 c267 0 311 2 324
16 9 8 16 24 16 33 0 43 -18 46 -329 48 -163 1 -305 -2 -317 -7z"/>
<path d="M3312 1840 c-29 -12 -37 -35 -24 -66 l12 -24 439 0 c392 0 441 2 456
16 22 23 15 56 -15 71 -30 15 -831 18 -868 3z"/>
</g>
</svg>
